<svg xmlns="http://www.w3.org/2000/svg" width="84" height="51.798" viewBox="0 0 84 51.798">
  <defs>
    <style>
      .cls-1 {
        fill: #fff;
      }
    </style>
  </defs>
  <path id="Path_1" data-name="Path 1" class="cls-1" d="M75.6,17.5a3.213,3.213,0,0,0-2.843,1.938,8.8,8.8,0,0,1-.566.844,36.946,36.946,0,0,1-3.727-.521c-3.752-.647-7.967-1.371-11.249.42-3.99-1.138-10.287-1.254-13.817,1.138C40.114,19.074,32.91,17.13,27.363,17.13a16.613,16.613,0,0,0-3.727.374C12.369,17.5,3.494,16.986,2.027,16.25A1.4,1.4,0,0,0,.41,18.494c.344.344.827.934,1.386,1.614,1.558,1.9,3.7,4.508,5.978,5.646A1.421,1.421,0,0,0,8.4,25.9a3.541,3.541,0,0,0,3.14-1.176,24.467,24.467,0,0,0,8.113,1.392c3.063,0,5.869-.613,7.353-1.565a9.808,9.808,0,0,1,2.954,1.77,12.046,12.046,0,0,0,3.812,2.209,11.974,11.974,0,0,0,2.811,4.336,10.881,10.881,0,0,1,1.211,1.523,1.72,1.72,0,0,1-1.151,1.277,9.376,9.376,0,0,0-3.885-.888c-4.326,0-7.556,3.444-7.556,6.523,0,3.24,3.059,8.4,5.6,8.4a6.97,6.97,0,0,0,4.2-.993V61.687c-1.281,1.1-3.949,2.955-4.984,3.651A1.4,1.4,0,0,0,30.8,67.9h9.8A1.4,1.4,0,0,0,42,66.5a170.886,170.886,0,0,1,1.029-17.7c.218-2.145.371-3.7.371-4.7,0-1.113,1.266-2.555,2.286-3.713,1.068-1.217,1.914-2.18,1.914-3.287,0-1.578-.057-3.6-.255-5.66,4.162-.372,9.838-2.575,11.957-4.14H75.6c3.24,0,8.4-3.058,8.4-5.6C84,18.407,75.685,17.5,75.6,17.5ZM43.583,38.535c-1.33,1.512-2.983,3.4-2.983,5.565,0,.864-.155,2.435-.356,4.424-.389,3.9-.965,9.66-1.037,16.576H35.2a23.177,23.177,0,0,0,2.192-1.81,1.4,1.4,0,0,0,.412-.99v-14c0-1.182,0-3.38-1.9-3.38a2.8,2.8,0,0,0-1.9.99,3.726,3.726,0,0,1-3.1.99A8.856,8.856,0,0,1,28,41.3c0-1.313,1.806-3.723,4.756-3.723a6.76,6.76,0,0,1,3.016.776,1.434,1.434,0,0,0,.63.147,4.424,4.424,0,0,0,4.2-4.2c0-1.107-.846-2.071-1.912-3.287-1.022-1.158-2.288-2.6-2.288-3.713A1.4,1.4,0,0,0,35,25.9c-.934,0-2.167-.925-3.36-1.82-1.558-1.17-3.174-2.38-5.04-2.38a1.394,1.394,0,0,0-.99.41c-.407.407-2.642,1.205-5.957,1.205A21.573,21.573,0,0,1,11.719,21.8a1.4,1.4,0,0,0-1.511.312,9.219,9.219,0,0,1-1.033.963,2.2,2.2,0,0,1-.427.028,16.494,16.494,0,0,1-3.716-3.478c5.5.594,14.361.676,18.767.676a1.378,1.378,0,0,0,.339-.042,13.672,13.672,0,0,1,3.223-.329c5.863,0,13.174,2.29,15.049,4.164,1.445,1.445,2.38,6.506,2.391,12.914A11.543,11.543,0,0,1,43.583,38.535ZM75.6,24.5H58.8a1.394,1.394,0,0,0-.99.41c-.967.967-6.793,3.451-10.825,3.76a16.764,16.764,0,0,0-1.646-5.277c2.737-1.541,8.1-1.541,11.619-.367a1.379,1.379,0,0,0,1.219-.162c2.422-1.617,6.346-.944,9.811-.347A30.091,30.091,0,0,0,72.8,23.1a1.394,1.394,0,0,0,.99-.41,9.248,9.248,0,0,0,1.348-1.779,2.2,2.2,0,0,1,.462-.61A16.526,16.526,0,0,1,81,21.869C80.193,22.795,77.536,24.5,75.6,24.5Z" transform="translate(0 -16.102)"/>
</svg>
